# Blender 3.5.1
# www.blender.org
mtllib origamiOstrich.mtl
o ostrich
v -1.857458 18.799587 -8.287073
v -4.599142 13.569654 -4.274248
v -1.746750 15.307079 -11.657403
v -0.431266 31.895517 5.651419
v 0.532661 19.911848 -17.819588
v -1.544880 15.702839 -15.614828
v -1.346127 19.759361 -4.925284
v -2.908697 14.141245 -5.128093
v -4.715141 17.039471 -10.178489
v -1.669140 11.996485 0.348391
v 0.532661 32.142273 8.680407
v -0.715263 20.781975 -2.374058
v 0.532661 20.968952 -2.548249
v -1.031275 13.247480 -5.640295
v 0.532661 12.034258 -5.364534
v 0.532661 11.568871 -4.394203
v -0.782209 12.350468 -4.036860
v 0.532661 12.986141 -6.844336
v 0.532661 31.767706 4.097126
v 0.532661 30.659407 4.511223
v 0.532661 20.912561 7.376759
v 0.532661 16.093489 7.850852
v 0.532661 14.428785 6.713668
v 0.532661 13.310711 5.795475
v 0.532661 12.609936 5.198605
v 0.532661 11.245235 0.454698
v 0.532661 11.010000 -1.537975
v -0.806880 11.844608 -2.454455
v 0.532661 11.017885 -2.467956
v -1.292182 12.340448 -3.650871
v -2.497064 13.623583 -4.756041
v -2.353732 14.551126 -6.367244
v -1.701107 13.861004 -5.732111
v -0.412489 15.734980 -9.368461
v 0.532661 16.233917 -10.146446
v -0.082812 16.431307 -10.009354
v 0.532661 17.019985 -17.749687
v -1.357268 15.206493 -12.493450
v 0.532661 17.106291 -10.071151
v -2.983286 16.686184 -11.865237
v 0.532661 19.383278 -11.890527
v 0.532661 20.622295 -6.708157
v 0.532661 20.537235 -4.961974
v -3.079136 21.146875 2.383199
v -0.503277 20.899681 -0.902032
v 0.532661 21.108721 -1.078482
v 0.532661 21.008623 1.812228
v 0.532661 26.936935 3.596216
v 0.532661 31.631109 2.672105
v 0.532661 34.114445 2.849459
v -0.178758 31.737137 4.139715
v -1.274161 24.118021 2.238852
v -2.938414 15.372978 2.355306
v -4.770694 13.403791 -0.359583
v -3.322361 15.361597 0.511216
v -5.541719 19.076500 0.563358
v -5.373735 17.693865 -3.420075
v -3.436371 14.097767 -4.711691
v -4.438499 14.342422 -5.545146
v -4.684398 15.578125 -7.459202
v -1.029120 15.718449 -8.910529
v -1.155470 16.434757 -9.681525
v -3.026463 17.884241 -7.469940
v -3.595482 17.065191 -9.572786
v -1.926637 14.904657 -12.539578
v -1.638204 16.518671 -9.796853
v -2.126678 16.627254 -9.409035
v -2.848835 16.757631 -9.377713
v -2.386426 20.272129 -6.427220
v -4.486003 22.930084 -5.403377
v -1.504258 15.854160 -8.882515
v -2.572652 16.481857 -7.890776
v -3.262432 18.014891 -5.056514
v -3.221572 19.444191 -5.744132
v -4.153844 18.278801 -6.350233
v -6.523536 20.584982 -15.622686
v -7.033938 16.667410 -9.280116
v -5.565211 22.045462 -11.417774
v -1.229271 7.025828 -3.138886
v -0.903113 6.942065 -4.082258
v -1.659957 6.934399 -4.641803
v -2.150680 7.020364 -3.575026
v -2.217380 0.308922 -0.172883
v -2.281592 -0.526248 -0.779556
v -2.766592 -0.525755 -0.768808
v -2.679242 0.342176 -0.190156
v 0.532661 12.320389 4.358229
v 0.532661 11.659273 4.043962
v 0.532661 11.176161 1.519239
v 0.532661 11.577091 2.566746
v 2.922780 18.799587 -8.287073
v 5.664465 13.569654 -4.274248
v 2.812072 15.307079 -11.657403
v 1.496588 31.895517 5.651419
v 2.610202 15.702839 -15.614828
v 2.411450 19.759361 -4.925284
v 3.974020 14.141245 -5.128093
v 5.780464 17.039471 -10.178489
v 2.734462 11.996485 0.348391
v 1.780586 20.781975 -2.374058
v 2.096598 13.247480 -5.640295
v 1.847532 12.350468 -4.036860
v 1.872203 11.844608 -2.454455
v 2.357504 12.340448 -3.650871
v 3.562387 13.623583 -4.756041
v 3.419054 14.551126 -6.367244
v 2.766430 13.861004 -5.732111
v 1.477811 15.734980 -9.368461
v 1.148134 16.431307 -10.009354
v 2.422591 15.206493 -12.493450
v 4.048609 16.686184 -11.865237
v 4.144459 21.146875 2.383199
v 1.568599 20.899681 -0.902032
v 1.244081 31.737137 4.139715
v 2.339483 24.118021 2.238852
v 4.003736 15.372978 2.355306
v 5.836017 13.403791 -0.359583
v 4.387683 15.361597 0.511216
v 6.607042 19.076500 0.563358
v 6.439058 17.693865 -3.420075
v 4.501694 14.097767 -4.711691
v 5.503822 14.342422 -5.545146
v 5.749721 15.578125 -7.459202
v 2.094442 15.718449 -8.910529
v 2.220793 16.434757 -9.681525
v 4.091786 17.884241 -7.469940
v 4.660805 17.065191 -9.572786
v 2.991960 14.904657 -12.539578
v 2.703527 16.518671 -9.796853
v 3.192001 16.627254 -9.409035
v 3.914157 16.757631 -9.377713
v 3.451749 20.272129 -6.427220
v 5.551325 22.930084 -5.403377
v 2.569580 15.854160 -8.882515
v 3.637975 16.481857 -7.890776
v 4.327754 18.014891 -5.056514
v 4.286895 19.444191 -5.744132
v 5.219167 18.278801 -6.350233
v 7.588859 20.584982 -15.622686
v 8.099260 16.667410 -9.280116
v 6.630537 22.045460 -11.417766
v 2.294593 7.025828 -3.138886
v 1.968435 6.942065 -4.082258
v 2.725280 6.934399 -4.641803
v 3.216002 7.020364 -3.575026
v 3.282703 0.308922 -0.172883
v 3.346915 -0.526248 -0.779556
v 3.831923 -0.525755 -0.768809
v 3.744564 0.342176 -0.190156
v 3.721774 -0.530035 2.184049
v -2.656451 -0.530035 2.184049
v 4.404228 -0.525052 0.311144
v -3.338905 -0.525052 0.311144
v -1.757095 -0.527099 0.411554
v 2.822417 -0.527099 0.411554
vn -0.0749 -0.9776 -0.1969
vn -0.0689 -0.8463 -0.5283
vn -0.3007 -0.1929 0.9340
vn -0.5358 -0.7696 -0.3473
vn -0.4866 -0.7347 -0.4726
vn -0.5121 -0.8258 -0.2362
vn -0.5100 -0.6424 -0.5721
vn -0.4080 -0.7965 -0.4462
vn -0.3191 -0.7873 -0.5276
vn -0.5438 -0.6694 -0.5062
vn -0.3950 0.1146 -0.9115
vn -0.8732 -0.4342 -0.2211
vn -0.2055 0.9774 -0.0486
vn -0.7526 -0.4179 0.5089
vn -0.7517 -0.4276 0.5021
vn -0.8583 -0.3599 -0.3658
vn -0.2041 -0.3177 -0.9260
vn -0.2367 -0.5949 -0.7681
vn -0.2673 -0.8003 0.5367
vn 0.2314 -0.8214 0.5214
vn -0.1350 -0.8642 0.4846
vn -0.8434 -0.4352 0.3152
vn -0.8041 0.5503 -0.2249
vn -0.5252 -0.8509 -0.0072
vn 0.3553 -0.7815 -0.5129
vn 0.7050 0.6584 -0.2635
vn -0.9807 -0.0307 -0.1933
vn -0.2461 -0.7299 -0.6378
vn -0.8433 0.1673 0.5107
vn -0.9756 -0.1086 0.1910
vn 0.9624 0.1832 -0.2004
vn 0.9835 -0.1545 -0.0942
vn 0.3605 -0.7825 -0.5077
vn 0.7203 0.6559 -0.2257
vn -0.7152 -0.6724 0.1908
vn 0.7857 -0.3712 -0.4948
vn -0.0419 -0.8803 -0.4726
vn 0.4172 0.1631 -0.8940
vn -0.4123 -0.5391 0.7344
vn -0.8990 -0.0846 -0.4297
vn 0.9463 -0.1253 0.2979
vn -0.7295 -0.6826 -0.0443
vn -0.9332 0.0453 0.3564
vn -0.0735 0.2813 0.9568
vn -0.7105 -0.7026 0.0391
vn -0.7422 -0.6259 0.2396
vn -0.7309 -0.6453 0.2223
vn -0.7784 -0.2695 0.5670
vn -0.3913 -0.7216 -0.5711
vn -0.0051 0.4046 0.9145
vn 0.9452 0.0051 0.3264
vn 0.5418 -0.4216 -0.7271
vn -0.9044 -0.1338 -0.4052
vn -0.7656 -0.3628 0.5312
vn -0.0477 -0.9942 0.0962
vn -0.9359 0.0345 0.3506
vn -0.5729 -0.8140 0.0961
vn -0.7327 -0.4708 -0.4914
vn 0.8745 0.4177 0.2464
vn 0.0476 -0.9955 0.0814
vn 0.0410 0.3497 0.9360
vn 0.4076 0.9034 0.1332
vn -0.7297 0.6260 0.2752
vn 0.7874 0.0162 0.6162
vn -0.0051 0.9969 -0.0790
vn -0.9907 -0.1267 -0.0488
vn -0.3009 -0.1928 0.9340
vn -0.1696 0.9701 -0.1735
vn -0.5069 0.8384 -0.2004
vn -0.3672 0.8355 -0.4088
vn -0.2464 0.9484 0.1994
vn -0.4355 -0.5399 -0.7203
vn 0.4357 0.8953 0.0925
vn 0.2845 0.9575 0.0466
vn -0.8938 0.4101 0.1814
vn -0.9816 -0.1894 0.0243
vn -0.6128 -0.5380 0.5788
vn 0.0710 0.9721 0.2236
vn 0.8101 -0.5513 -0.1996
vn -0.7038 0.7103 -0.0080
vn 0.6927 -0.7212 0.0002
vn 0.4274 -0.8523 0.3016
vn 0.4723 -0.8656 -0.1660
vn -0.7858 0.4210 -0.4530
vn -0.9124 0.4076 0.0363
vn 0.1164 -0.9132 0.3905
vn 0.4803 -0.8159 0.3219
vn 0.6866 0.7232 0.0737
vn -0.3446 -0.5422 -0.7663
vn -0.3235 -0.9412 -0.0973
vn -0.5503 -0.5953 -0.5855
vn -0.0205 -0.8301 -0.5573
vn -0.6596 0.7433 -0.1110
vn -0.2994 -0.8435 0.4459
vn -0.4317 -0.8409 0.3264
vn -0.8744 -0.4589 -0.1576
vn -0.1819 -0.9723 -0.1465
vn -0.3548 -0.9289 -0.1064
vn -0.8416 -0.3858 0.3780
vn 0.8279 0.0661 -0.5570
vn -0.8850 -0.1810 -0.4289
vn -0.6574 0.7462 -0.1047
vn 0.7553 -0.3015 -0.5819
vn -0.9551 -0.2857 -0.0779
vn -0.5195 -0.7256 -0.4512
vn -0.6574 -0.7069 -0.2608
vn -0.1236 -0.8408 -0.5270
vn -0.0348 -0.9441 -0.3279
vn -0.4245 0.7491 -0.5085
vn 0.1000 -0.6093 -0.7866
vn -0.1921 0.9808 0.0340
vn -0.8034 0.5224 0.2857
vn -0.1915 0.0234 -0.9812
vn 0.2605 0.2782 -0.9245
vn -0.9787 -0.0248 0.2039
vn -0.4203 -0.2633 0.8683
vn -0.5667 0.7751 -0.2795
vn 0.4319 0.7105 -0.5555
vn 0.8985 0.0313 -0.4378
vn -0.7807 0.5920 0.2002
vn 0.0749 -0.9776 -0.1969
vn 0.0689 -0.8463 -0.5283
vn 0.3007 -0.1929 0.9340
vn 0.5358 -0.7696 -0.3473
vn 0.4866 -0.7347 -0.4726
vn 0.5121 -0.8258 -0.2362
vn 0.5100 -0.6424 -0.5721
vn 0.4345 -0.7273 -0.5312
vn 0.3191 -0.7873 -0.5276
vn 0.5438 -0.6694 -0.5062
vn 0.3950 0.1146 -0.9115
vn 0.8732 -0.4342 -0.2211
vn 0.2055 0.9774 -0.0486
vn 0.7526 -0.4179 0.5089
vn 0.6871 -0.7114 0.1474
vn 0.8583 -0.3599 -0.3658
vn 0.2041 -0.3177 -0.9260
vn 0.4137 -0.6998 -0.5824
vn 0.2673 -0.8003 0.5367
vn -0.2314 -0.8214 0.5214
vn 0.1350 -0.8642 0.4846
vn 0.8434 -0.4352 0.3152
vn 0.8041 0.5503 -0.2249
vn 0.5252 -0.8509 -0.0072
vn -0.3553 -0.7815 -0.5129
vn -0.7050 0.6584 -0.2635
vn 0.9807 -0.0307 -0.1933
vn 0.0002 -0.8089 -0.5879
vn 0.8433 0.1673 0.5107
vn 0.9756 -0.1086 0.1910
vn -0.9624 0.1832 -0.2004
vn -0.9835 -0.1545 -0.0942
vn -0.3605 -0.7825 -0.5077
vn -0.7203 0.6559 -0.2257
vn 0.7152 -0.6724 0.1908
vn -0.7857 -0.3712 -0.4948
vn -0.0342 -0.8376 -0.5452
vn -0.4172 0.1631 -0.8940
vn 0.3523 -0.5582 0.7512
vn 0.8990 -0.0846 -0.4297
vn -0.9336 -0.1293 0.3343
vn 0.7295 -0.6826 -0.0443
vn 0.9332 0.0453 0.3564
vn 0.0735 0.2813 0.9568
vn 0.7105 -0.7026 0.0391
vn 0.7422 -0.6259 0.2396
vn 0.7309 -0.6453 0.2223
vn 0.7784 -0.2695 0.5670
vn 0.3913 -0.7216 -0.5711
vn 0.3861 0.4412 0.8101
vn -0.9452 0.0051 0.3264
vn -0.5418 -0.4216 -0.7271
vn 0.9912 0.1263 -0.0399
vn 0.7656 -0.3628 0.5312
vn 0.0477 -0.9942 0.0962
vn 0.9359 0.0345 0.3506
vn 0.5729 -0.8140 0.0961
vn 0.7327 -0.4708 -0.4914
vn -0.8745 0.4177 0.2464
vn -0.0476 -0.9955 0.0814
vn -0.0410 0.3497 0.9360
vn -0.4076 0.9034 0.1332
vn 0.7297 0.6260 0.2752
vn -0.7874 0.0162 0.6162
vn 0.0051 0.9969 -0.0790
vn 0.9907 -0.1267 -0.0488
vn 0.3009 -0.1928 0.9340
vn 0.1696 0.9701 -0.1735
vn 0.5069 0.8384 -0.2004
vn 0.3672 0.8355 -0.4088
vn 0.2464 0.9484 0.1994
vn 0.4355 -0.5399 -0.7203
vn -0.4357 0.8953 0.0925
vn -0.2845 0.9575 0.0466
vn 0.8938 0.4101 0.1814
vn 0.9816 -0.1894 0.0243
vn 0.6128 -0.5380 0.5788
vn -0.0710 0.9721 0.2236
vn -0.8101 -0.5513 -0.1996
vn 0.7038 0.7103 -0.0080
vn -0.6927 -0.7212 0.0002
vn -0.4274 -0.8523 0.3016
vn -0.4723 -0.8656 -0.1660
vn 0.7858 0.4210 -0.4530
vn 0.9124 0.4076 0.0363
vn -0.1164 -0.9132 0.3905
vn -0.4803 -0.8159 0.3219
vn -0.6866 0.7232 0.0737
vn 0.3446 -0.5422 -0.7663
vn 0.3235 -0.9412 -0.0973
vn 0.5503 -0.5953 -0.5855
vn 0.0205 -0.8301 -0.5573
vn 0.6596 0.7433 -0.1110
vn 0.2994 -0.8435 0.4459
vn 0.4317 -0.8409 0.3264
vn 0.8744 -0.4589 -0.1576
vn 0.1819 -0.9723 -0.1465
vn 0.3548 -0.9289 -0.1064
vn 0.8416 -0.3858 0.3780
vn -0.8279 0.0661 -0.5570
vn 0.8850 -0.1810 -0.4289
vn 0.6574 0.7462 -0.1047
vn -0.7553 -0.3015 -0.5819
vn 0.9551 -0.2857 -0.0779
vn 0.5195 -0.7256 -0.4512
vn 0.6574 -0.7069 -0.2608
vn 0.1236 -0.8408 -0.5270
vn 0.0348 -0.9441 -0.3279
vn 0.4245 0.7491 -0.5085
vn -0.1000 -0.6093 -0.7866
vn 0.1921 0.9808 0.0340
vn 0.8034 0.5224 0.2857
vn 0.1915 0.0234 -0.9812
vn -0.2605 0.2782 -0.9245
vn 0.9787 -0.0248 0.2039
vn 0.4203 -0.2633 0.8683
vn 0.5667 0.7751 -0.2795
vn -0.4319 0.7105 -0.5555
vn 0.9648 0.1904 -0.1811
vn 0.7807 0.5920 0.2002
vn -0.9648 0.1904 -0.1811
vn -0.8985 0.0313 -0.4378
vn 0.2397 0.1592 -0.9577
vn -0.1381 -0.7176 -0.6826
vn -0.2093 -0.9305 -0.3007
vn -0.4541 -0.7867 -0.4182
vn -0.3071 -0.8501 -0.4278
vn 0.9356 0.0946 -0.3403
vn 0.5904 0.1065 -0.8000
vn 0.1381 -0.7176 -0.6826
vn -0.2397 0.1592 -0.9577
vn 0.2093 -0.9305 -0.3007
vn 0.3071 -0.8501 -0.4278
vn 0.4541 -0.7867 -0.4182
vn -0.5904 0.1065 -0.8000
vn -0.9356 0.0946 -0.3403
vn -0.0010 -1.0000 -0.0014
vn -0.0546 0.9374 0.3439
vn 0.8199 0.3724 -0.4348
vn 0.8935 0.2170 -0.3933
vn -0.8935 0.2170 -0.3933
vn 0.0010 -1.0000 -0.0014
vn -0.8199 0.3724 -0.4348
vn 0.0546 0.9374 0.3439
vn 0.6932 0.6743 0.2544
vn 0.0037 -1.0000 -0.0013
vn -0.0037 -1.0000 -0.0013
vn -0.6932 0.6743 0.2544
vn 0.6933 0.6284 0.3528
vn 0.0010 -1.0000 -0.0012
vn -0.0010 -1.0000 -0.0012
vn -0.6933 0.6284 0.3528
vn -0.5470 -0.7548 -0.3620
vn -0.5448 -0.7962 -0.2630
vn -0.4345 -0.7273 -0.5312
vn -0.2636 -0.8173 -0.5124
vn -0.3923 -0.7338 -0.5547
vn -0.1603 0.9826 -0.0934
vn -0.6871 -0.7114 0.1474
vn -0.9332 -0.3549 -0.0559
vn -0.4137 -0.6998 -0.5824
vn -0.0002 -0.8089 -0.5879
vn 0.0342 -0.8376 -0.5452
vn -0.3523 -0.5582 0.7512
vn 0.9336 -0.1293 0.3343
vn -0.3861 0.4412 0.8101
vn 0.9857 -0.1418 0.0908
vn -0.0202 -0.4583 -0.8886
vn -0.9912 0.1263 -0.0399
vn 0.5470 -0.7548 -0.3620
vn 0.5448 -0.7962 -0.2630
vn 0.4080 -0.7965 -0.4462
vn 0.2636 -0.8173 -0.5124
vn 0.3923 -0.7338 -0.5547
vn 0.1603 0.9826 -0.0934
vn 0.7517 -0.4276 0.5021
vn 0.9332 -0.3549 -0.0559
vn 0.2367 -0.5949 -0.7681
vn 0.2461 -0.7299 -0.6378
vn 0.0419 -0.8803 -0.4726
vn 0.4123 -0.5391 0.7344
vn -0.9463 -0.1253 0.2979
vn 0.0051 0.4046 0.9145
vn -0.9857 -0.1418 0.0908
vn 0.0202 -0.4583 -0.8886
vn 0.9044 -0.1338 -0.4052
s 0
g off
usemtl Default
f 59//1 8//1 58//1
f 9//2 77//2 76//2
f 55//3 54//3 10//3
f 15//4 17//4 14//4
f 14//5 18//5 15//5
f 28//6 16//6 29//6
f 31//7 33//7 14//7
f 33//8 8//8 32//8
f 32//9 61//9 33//9
f 61//10 14//10 33//10
f 58//11 2//11 57//11
f 65//12 40//12 6//12
f 46//13 12//13 45//13
f 53//14 24//14 23//14
f 53//15 25//15 24//15
f 82//16 2//16 81//16
f 31//17 2//17 58//17
f 34//18 62//18 36//18
f 62//19 66//19 3//19
f 66//20 67//20 3//20
f 67//21 68//21 3//21
f 57//22 77//22 59//22
f 56//23 75//23 57//23
f 29//24 27//24 28//24
f 74//25 69//25 7//25
f 69//26 70//26 7//26
f 56//27 70//27 75//27
f 71//28 62//28 61//28
f 52//29 53//29 22//29
f 78//30 75//30 70//30
f 76//31 75//31 9//31
f 9//32 75//32 60//32
f 74//33 78//33 69//33
f 69//34 78//34 70//34
f 26//35 55//35 28//35
f 74//36 75//36 78//36
f 60//37 77//37 9//37
f 48//38 52//38 51//38
f 82//39 10//39 54//39
f 51//40 49//40 48//40
f 79//41 28//41 10//41
f 55//42 26//42 89//42
f 51//43 52//43 21//43
f 51//44 21//44 20//44
f 55//45 90//45 88//45
f 55//46 89//46 90//46
f 87//47 25//47 55//47
f 55//48 88//48 87//48
f 31//49 58//49 8//49
f 79//50 86//50 83//50
f 83//51 80//51 79//51
f 84//52 81//52 80//52
f 81//53 86//53 82//53
f 22//54 53//54 23//54
f 11//55 4//55 51//55
f 21//56 52//56 22//56
f 28//57 27//57 26//57
f 71//58 32//58 72//58
f 28//59 55//59 10//59
f 51//60 19//60 11//60
f 51//61 20//61 19//61
f 44//62 12//62 70//62
f 44//63 70//63 56//63
f 44//64 53//64 45//64
f 45//65 12//65 44//65
f 54//66 56//66 2//66
f 55//67 56//67 54//67
f 43//68 12//68 13//68
f 42//69 41//69 1//69
f 1//70 74//70 42//70
f 42//71 74//71 7//71
f 7//72 70//72 42//72
f 42//73 70//73 12//73
f 12//74 43//74 42//74
f 57//75 76//75 77//75
f 57//76 2//76 56//76
f 57//77 59//77 58//77
f 57//78 75//78 76//78
f 38//79 5//79 39//79
f 38//80 39//80 37//80
f 37//81 36//81 38//81
f 38//82 3//82 65//82
f 65//83 6//83 38//83
f 38//84 1//84 41//84
f 41//85 5//85 38//85
f 38//86 36//86 62//86
f 62//87 3//87 38//87
f 38//88 6//88 40//88
f 35//89 34//89 36//89
f 36//90 37//90 35//90
f 35//91 18//91 14//91
f 14//92 34//92 35//92
f 64//93 63//93 1//93
f 64//94 65//94 3//94
f 3//95 68//95 64//95
f 40//96 65//96 64//96
f 72//97 68//97 67//97
f 72//98 64//98 68//98
f 72//99 63//99 64//99
f 60//100 75//100 73//100
f 73//101 74//101 1//101
f 1//102 63//102 73//102
f 73//103 75//103 74//103
f 73//104 63//104 72//104
f 71//105 67//105 66//105
f 67//106 71//106 72//106
f 59//107 60//107 32//107
f 59//108 32//108 8//108
f 60//109 73//109 72//109
f 32//110 60//110 72//110
f 47//111 46//111 45//111
f 47//112 45//112 53//112
f 47//113 53//113 52//113
f 52//114 48//114 47//114
f 44//115 55//115 53//115
f 56//116 55//116 44//116
f 40//117 64//117 1//117
f 1//118 38//118 40//118
f 50//119 114//119 49//119
f 4//120 11//120 50//120
f 121//121 97//121 122//121
f 139//122 140//122 98//122
f 99//123 117//123 118//123
f 102//124 15//124 101//124
f 15//125 18//125 101//125
f 16//126 103//126 29//126
f 101//127 107//127 105//127
f 107//128 97//128 105//128
f 124//129 106//129 107//129
f 101//130 124//130 107//130
f 120//131 92//131 121//131
f 95//132 111//132 128//132
f 100//133 46//133 113//133
f 23//134 24//134 116//134
f 116//135 25//135 118//135
f 92//136 145//136 144//136
f 121//137 92//137 105//137
f 108//138 125//138 124//138
f 93//139 129//139 125//139
f 93//140 130//140 129//140
f 93//141 131//141 130//141
f 122//142 140//142 120//142
f 120//143 138//143 119//143
f 103//144 27//144 29//144
f 96//145 132//145 137//145
f 96//146 133//146 132//146
f 138//147 133//147 119//147
f 134//148 125//148 129//148
f 22//149 116//149 115//149
f 133//150 138//150 141//150
f 98//151 138//151 139//151
f 123//152 138//152 98//152
f 132//153 141//153 137//153
f 133//154 141//154 132//154
f 103//155 118//155 26//155
f 141//156 138//156 137//156
f 123//157 140//157 122//157
f 114//158 115//158 48//158
f 145//159 99//159 142//159
f 48//160 49//160 114//160
f 142//161 103//161 143//161
f 89//162 26//162 118//162
f 21//163 115//163 114//163
f 20//164 21//164 114//164
f 88//165 90//165 118//165
f 90//166 89//166 118//166
f 118//167 25//167 87//167
f 87//168 88//168 118//168
f 97//169 121//169 105//169
f 142//170 149//170 145//170
f 143//171 146//171 142//171
f 144//172 147//172 143//172
f 144//173 149//173 148//173
f 23//174 116//174 22//174
f 114//175 94//175 11//175
f 22//176 115//176 21//176
f 26//177 27//177 103//177
f 135//178 106//178 134//178
f 99//179 118//179 103//179
f 11//180 19//180 114//180
f 19//181 20//181 114//181
f 133//182 100//182 112//182
f 119//183 133//183 112//183
f 113//184 116//184 112//184
f 112//185 100//185 113//185
f 92//186 119//186 117//186
f 119//187 118//187 117//187
f 13//188 100//188 43//188
f 91//189 41//189 42//189
f 42//190 137//190 91//190
f 96//191 137//191 42//191
f 42//192 133//192 96//192
f 100//193 133//193 42//193
f 42//194 43//194 100//194
f 140//195 139//195 120//195
f 119//196 92//196 120//196
f 121//197 122//197 120//197
f 139//198 138//198 120//198
f 39//199 5//199 110//199
f 37//200 39//200 110//200
f 110//201 109//201 37//201
f 128//202 93//202 110//202
f 110//203 95//203 128//203
f 41//204 91//204 110//204
f 110//205 5//205 41//205
f 125//206 109//206 110//206
f 110//207 93//207 125//207
f 111//208 95//208 110//208
f 109//209 108//209 35//209
f 35//210 37//210 109//210
f 101//211 18//211 35//211
f 35//212 108//212 101//212
f 91//213 126//213 127//213
f 93//214 128//214 127//214
f 127//215 131//215 93//215
f 127//216 128//216 111//216
f 130//217 131//217 135//217
f 131//218 127//218 135//218
f 127//219 126//219 135//219
f 136//220 138//220 123//220
f 91//221 137//221 136//221
f 136//222 126//222 91//222
f 137//223 138//223 136//223
f 135//224 126//224 136//224
f 129//225 130//225 134//225
f 135//226 134//226 130//226
f 106//227 123//227 122//227
f 97//228 106//228 122//228
f 135//229 136//229 123//229
f 135//230 123//230 106//230
f 113//231 46//231 47//231
f 116//232 113//232 47//232
f 115//233 116//233 47//233
f 47//234 48//234 115//234
f 116//235 118//235 112//235
f 112//236 118//236 119//236
f 91//237 127//237 111//237
f 111//238 110//238 91//238
f 50//239 94//239 114//239
f 50//240 11//240 94//240
f 50//241 51//241 4//241
f 49//242 51//242 50//242
f 30//243 81//243 2//243
f 2//244 31//244 30//244
f 30//245 17//245 28//245
f 30//246 31//246 14//246
f 14//247 17//247 30//247
f 30//248 28//248 80//248
f 80//249 81//249 30//249
f 104//250 105//250 92//250
f 92//251 144//251 104//251
f 104//252 103//252 102//252
f 104//253 102//253 101//253
f 101//254 105//254 104//254
f 104//255 144//255 143//255
f 143//256 103//256 104//256
f 85//257 84//257 151//257
f 149//258 146//258 150//258
f 148//259 149//259 152//259
f 84//260 83//260 154//260
f 146//261 147//261 155//261
f 147//262 148//262 150//262
f 86//263 85//263 153//263
f 83//264 86//264 151//264
f 149//265 150//265 152//265
f 150//266 148//266 152//266
f 85//267 151//267 153//267
f 151//268 86//268 153//268
f 83//269 151//269 154//269
f 151//270 84//270 154//270
f 147//271 150//271 155//271
f 150//272 146//272 155//272
f 15//273 16//273 17//273
f 28//274 17//274 16//274
f 33//275 31//275 8//275
f 32//276 71//276 61//276
f 61//277 34//277 14//277
f 46//278 13//278 12//278
f 53//279 55//279 25//279
f 82//280 54//280 2//280
f 34//281 61//281 62//281
f 71//282 66//282 62//282
f 60//283 59//283 77//283
f 82//284 79//284 10//284
f 79//285 80//285 28//285
f 79//286 82//286 86//286
f 83//287 84//287 80//287
f 84//288 85//288 81//288
f 81//289 85//289 86//289
f 102//290 16//290 15//290
f 16//291 102//291 103//291
f 107//292 106//292 97//292
f 124//293 134//293 106//293
f 101//294 108//294 124//294
f 100//295 13//295 46//295
f 116//296 24//296 25//296
f 92//297 117//297 145//297
f 108//298 109//298 125//298
f 134//299 124//299 125//299
f 123//300 98//300 140//300
f 145//301 117//301 99//301
f 142//302 99//302 103//302
f 142//303 146//303 149//303
f 143//304 147//304 146//304
f 144//305 148//305 147//305
f 144//306 145//306 149//306
